<svg xmlns="http://www.w3.org/2000/svg" viewBox="0 0 400 600" width="400" height="600">
<defs>
<linearGradient id="body" x1="0" y1="0" x2="1" y2="1"><stop offset="0" stop-color="#3a3a48"/><stop offset=".5" stop-color="#1c1c24"/><stop offset="1" stop-color="#050507"/></linearGradient>
<radialGradient id="skin" cx=".4" cy=".35" r=".8"><stop offset="0" stop-color="#f1c7a0"/><stop offset="1" stop-color="#d9a47c"/></radialGradient>
<linearGradient id="skind" x1="0" y1="0" x2="0" y2="1"><stop offset="0" stop-color="#d9a47c"/><stop offset="1" stop-color="#f1c7a0"/></linearGradient>
<linearGradient id="hair" x1="0" y1="0" x2="1" y2="1"><stop offset="0" stop-color="#f3f3f8"/><stop offset="1" stop-color="#b9b9c6"/></linearGradient>
<radialGradient id="shadow"><stop offset="0" stop-color="#000" stop-opacity=".5"/><stop offset="1" stop-color="#000" stop-opacity="0"/></radialGradient>
</defs>
<ellipse cx="200" cy="582" rx="150" ry="20" fill="url(#shadow)"/>
<circle cx="100" cy="215" r="26" fill="#ececf1"/><circle cx="100" cy="260" r="26" fill="#ececf1"/><circle cx="104" cy="305" r="24" fill="#ececf1"/><circle cx="300" cy="215" r="26" fill="#ececf1"/><circle cx="300" cy="260" r="26" fill="#ececf1"/><circle cx="296" cy="305" r="24" fill="#ececf1"/>
<path d="M50 600 C52 470 70 395 135 362 Q200 340 265 362 C330 395 348 470 350 600Z" fill="url(#body)"/>
<path d="M50 600 C52 470 70 395 135 362 L150 366 C100 400 92 480 96 600Z" fill="#ffffff" opacity=".12"/>
<path d="M350 600 C348 470 330 395 265 362 L250 366 C300 400 308 480 304 600Z" fill="#000" opacity=".22"/>
<path d="M140 365 L200 520 L260 365 L232 352 L200 400 L168 352Z" fill="#fbfbfd"/><path d="M178 362 L200 420 L222 362 L200 372Z" fill="#e4e4ee"/><path d="M60 600 L90 440 L130 380" stroke="#ffffff" stroke-opacity="0.13" stroke-width="3" fill="none"/>
<path d="M166 292 L166 352 Q200 378 234 352 L234 292Z" fill="url(#skind)"/>
<ellipse cx="200" cy="312" rx="52" ry="20" fill="#000" opacity=".22"/>
<ellipse cx="121" cy="226" rx="13" ry="22" fill="#d9a47c"/><ellipse cx="279" cy="226" rx="13" ry="22" fill="#d9a47c"/>
<ellipse cx="200" cy="215" rx="80" ry="92" fill="url(#skin)"/>
<ellipse cx="148" cy="248" rx="16" ry="10" fill="#e8737a" opacity=".28"/><ellipse cx="252" cy="248" rx="16" ry="10" fill="#e8737a" opacity=".28"/>
<ellipse cx="165" cy="217" rx="16" ry="11.5" fill="#fff"/><circle cx="166" cy="218" r="8.5" fill="#5b4a3a"/><circle cx="166" cy="218" r="4.2" fill="#0d0d0d"/><circle cx="169" cy="214" r="2.6" fill="#fff"/><path d="M149 214 Q165 202 181 214" stroke="#000000" stroke-opacity="0.33" stroke-width="3" fill="none"/><ellipse cx="235" cy="217" rx="16" ry="11.5" fill="#fff"/><circle cx="234" cy="218" r="8.5" fill="#5b4a3a"/><circle cx="234" cy="218" r="4.2" fill="#0d0d0d"/><circle cx="239" cy="214" r="2.6" fill="#fff"/><path d="M219 214 Q235 202 251 214" stroke="#000000" stroke-opacity="0.33" stroke-width="3" fill="none"/><path d="M142 200 L186 208" stroke="#b9b9c6" stroke-width="7" stroke-linecap="round"/><path d="M258 200 L214 208" stroke="#b9b9c6" stroke-width="7" stroke-linecap="round"/>
<path d="M200 222 Q190 250 198 256 Q212 258 214 252" stroke="#d9a47c" stroke-width="4" fill="none" stroke-linecap="round"/>
<path d="M178 268 Q200 262 222 268" stroke="#7a3328" stroke-width="5" fill="none" stroke-linecap="round"/>
<circle cx="120" cy="160" r="30" fill="#f5f5f8" stroke="#c8c8d2" stroke-width="2"/><circle cx="150" cy="128" r="32" fill="#f5f5f8" stroke="#c8c8d2" stroke-width="2"/><circle cx="190" cy="112" r="34" fill="#f5f5f8" stroke="#c8c8d2" stroke-width="2"/><circle cx="230" cy="112" r="34" fill="#f5f5f8" stroke="#c8c8d2" stroke-width="2"/><circle cx="262" cy="130" r="32" fill="#f5f5f8" stroke="#c8c8d2" stroke-width="2"/><circle cx="284" cy="162" r="30" fill="#f5f5f8" stroke="#c8c8d2" stroke-width="2"/><circle cx="110" cy="200" r="22" fill="#f5f5f8" stroke="#c8c8d2" stroke-width="2"/><circle cx="290" cy="200" r="22" fill="#f5f5f8" stroke="#c8c8d2" stroke-width="2"/><path d="M120 200 C130 160 170 150 200 156 C230 150 272 160 280 200 C260 178 232 172 200 178 C168 172 140 178 120 200Z" fill="#f5f5f8"/>

<g transform="rotate(-28 340 470)"><rect x="318" y="438" width="46" height="64" rx="10" fill="#a8742f"/><rect x="326" y="500" width="30" height="80" rx="9" fill="#7a4f1f"/></g><circle cx="332" cy="520" r="22" fill="#f1c7a0"/>
</svg>