<svg xmlns="http://www.w3.org/2000/svg" viewBox="0 0 400 600" width="400" height="600">
<defs>
<linearGradient id="body" x1="0" y1="0" x2="1" y2="1"><stop offset="0" stop-color="#6ee79a"/><stop offset=".5" stop-color="#22c55e"/><stop offset="1" stop-color="#0b5f2c"/></linearGradient>
<radialGradient id="skin" cx=".4" cy=".35" r=".8"><stop offset="0" stop-color="#caa07a"/><stop offset="1" stop-color="#a97f5a"/></radialGradient>
<linearGradient id="skind" x1="0" y1="0" x2="0" y2="1"><stop offset="0" stop-color="#a97f5a"/><stop offset="1" stop-color="#caa07a"/></linearGradient>
<linearGradient id="hair" x1="0" y1="0" x2="1" y2="1"><stop offset="0" stop-color="#3a3028"/><stop offset="1" stop-color="#151210"/></linearGradient>
<radialGradient id="shadow"><stop offset="0" stop-color="#000" stop-opacity=".5"/><stop offset="1" stop-color="#000" stop-opacity="0"/></radialGradient>
</defs>
<ellipse cx="200" cy="582" rx="150" ry="20" fill="url(#shadow)"/>

<path d="M50 600 C52 470 70 395 135 362 Q200 340 265 362 C330 395 348 470 350 600Z" fill="url(#body)"/>
<path d="M50 600 C52 470 70 395 135 362 L150 366 C100 400 92 480 96 600Z" fill="#ffffff" opacity=".12"/>
<path d="M350 600 C348 470 330 395 265 362 L250 366 C300 400 308 480 304 600Z" fill="#000" opacity=".22"/>
<path d="M150 362 L200 440 L250 362 L228 352 L200 380 L172 352Z" fill="#fff"/><path d="M140 366 L192 440 L168 600 L96 600Z" fill="#169a48"/><path d="M260 366 L208 440 L232 600 L304 600Z" fill="#169a48"/>
<path d="M166 292 L166 352 Q200 378 234 352 L234 292Z" fill="url(#skind)"/>
<ellipse cx="200" cy="312" rx="52" ry="20" fill="#000" opacity=".22"/>
<ellipse cx="121" cy="226" rx="13" ry="22" fill="#a97f5a"/><ellipse cx="279" cy="226" rx="13" ry="22" fill="#a97f5a"/>
<ellipse cx="200" cy="215" rx="80" ry="92" fill="url(#skin)"/>
<ellipse cx="148" cy="248" rx="16" ry="10" fill="#e8737a" opacity=".28"/><ellipse cx="252" cy="248" rx="16" ry="10" fill="#e8737a" opacity=".28"/>
<ellipse cx="165" cy="217" rx="16" ry="11.5" fill="#fff"/><circle cx="166" cy="218" r="8.5" fill="#4a3020"/><circle cx="166" cy="218" r="4.2" fill="#0d0d0d"/><circle cx="169" cy="214" r="2.6" fill="#fff"/><path d="M149 214 Q165 202 181 214" stroke="#000000" stroke-opacity="0.33" stroke-width="3" fill="none"/><ellipse cx="235" cy="217" rx="16" ry="11.5" fill="#fff"/><circle cx="234" cy="218" r="8.5" fill="#4a3020"/><circle cx="234" cy="218" r="4.2" fill="#0d0d0d"/><circle cx="239" cy="214" r="2.6" fill="#fff"/><path d="M219 214 Q235 202 251 214" stroke="#000000" stroke-opacity="0.33" stroke-width="3" fill="none"/><path d="M142 190 L186 196" stroke="#151210" stroke-width="7" stroke-linecap="round"/><path d="M258 190 L214 196" stroke="#151210" stroke-width="7" stroke-linecap="round"/>
<path d="M200 222 Q190 250 198 256 Q212 258 214 252" stroke="#a97f5a" stroke-width="4" fill="none" stroke-linecap="round"/>
<path d="M172 256 Q200 305 228 256 Q200 262 172 256Z" fill="#4a1414"/><path d="M176 257 Q200 264 224 257 L222 265 Q200 270 178 265Z" fill="#fff"/><ellipse cx="200" cy="288" rx="14" ry="7" fill="#c9585c"/>
<circle cx="128" cy="170" r="28" fill="url(#hair)"/><circle cx="150" cy="134" r="30" fill="url(#hair)"/><circle cx="185" cy="116" r="32" fill="url(#hair)"/><circle cx="222" cy="116" r="32" fill="url(#hair)"/><circle cx="256" cy="136" r="30" fill="url(#hair)"/><circle cx="276" cy="172" r="28" fill="url(#hair)"/><circle cx="112" cy="205" r="20" fill="url(#hair)"/><circle cx="292" cy="205" r="20" fill="url(#hair)"/><circle cx="170" cy="150" r="28" fill="url(#hair)"/><circle cx="235" cy="150" r="28" fill="url(#hair)"/>

<g><rect x="304" y="170" width="30" height="190" rx="14" fill="#22c55e" transform="rotate(10 319 360)"/><circle cx="342" cy="176" r="24" fill="#caa07a"/><rect x="326" y="132" width="9" height="40" rx="4.5" fill="#caa07a"/><rect x="338" y="126" width="9" height="44" rx="4.5" fill="#caa07a"/><rect x="350" y="132" width="9" height="40" rx="4.5" fill="#caa07a"/><rect x="361" y="144" width="9" height="32" rx="4.5" fill="#caa07a"/></g>
</svg>