<svg xmlns="http://www.w3.org/2000/svg" viewBox="0 0 1920 1080" width="1920" height="1080">
<defs>
<linearGradient id="wall" x1="0" y1="0" x2="0" y2="1"><stop offset="0" stop-color="#4a3626"/><stop offset="1" stop-color="#2c1f16"/></linearGradient>
<linearGradient id="panel" x1="0" y1="0" x2="1" y2="0"><stop offset="0" stop-color="#6a4a32"/><stop offset=".5" stop-color="#523826"/><stop offset="1" stop-color="#3a281b"/></linearGradient>
<linearGradient id="wood" x1="0" y1="0" x2="0" y2="1"><stop offset="0" stop-color="#8a5f3a"/><stop offset="1" stop-color="#4d3320"/></linearGradient>
<linearGradient id="woodl" x1="0" y1="0" x2="0" y2="1"><stop offset="0" stop-color="#b07c4c"/><stop offset="1" stop-color="#7a5232"/></linearGradient>
<linearGradient id="floor" x1="0" y1="0" x2="0" y2="1"><stop offset="0" stop-color="#6a4a30"/><stop offset="1" stop-color="#2a1c12"/></linearGradient>
<radialGradient id="lamp"><stop offset="0" stop-color="#ffd58a" stop-opacity=".95"/><stop offset=".35" stop-color="#ffb347" stop-opacity=".35"/><stop offset="1" stop-color="#ffb347" stop-opacity="0"/></radialGradient>
<linearGradient id="beam" x1="0" y1="0" x2="1" y2="1"><stop offset="0" stop-color="#fff2c8" stop-opacity=".38"/><stop offset="1" stop-color="#fff2c8" stop-opacity="0"/></linearGradient>
<radialGradient id="vig" cx=".5" cy=".5" r=".75"><stop offset=".6" stop-color="#000" stop-opacity="0"/><stop offset="1" stop-color="#000" stop-opacity=".45"/></radialGradient>
<linearGradient id="gold" x1="0" y1="0" x2="1" y2="1"><stop offset="0" stop-color="#ffe29a"/><stop offset=".5" stop-color="#d4a24c"/><stop offset="1" stop-color="#8a6420"/></linearGradient>
<linearGradient id="carpet" x1="0" y1="0" x2="0" y2="1"><stop offset="0" stop-color="#7a1f24"/><stop offset="1" stop-color="#4a1014"/></linearGradient>
</defs>
<rect width="1920" height="1080" fill="url(#wall)"/>
<rect x="8" y="70" width="134" height="540" rx="6" fill="url(#panel)"/><rect x="20" y="86" width="110" height="250" rx="4" fill="none" stroke="#000000" stroke-opacity="0.27" stroke-width="3"/><rect x="20" y="352" width="110" height="240" rx="4" fill="none" stroke="#000000" stroke-opacity="0.27" stroke-width="3"/><rect x="10" y="72" width="3" height="536" fill="#ffffff" fill-opacity="0.13"/><rect x="158" y="70" width="134" height="540" rx="6" fill="url(#panel)"/><rect x="170" y="86" width="110" height="250" rx="4" fill="none" stroke="#000000" stroke-opacity="0.27" stroke-width="3"/><rect x="170" y="352" width="110" height="240" rx="4" fill="none" stroke="#000000" stroke-opacity="0.27" stroke-width="3"/><rect x="160" y="72" width="3" height="536" fill="#ffffff" fill-opacity="0.13"/><rect x="308" y="70" width="134" height="540" rx="6" fill="url(#panel)"/><rect x="320" y="86" width="110" height="250" rx="4" fill="none" stroke="#000000" stroke-opacity="0.27" stroke-width="3"/><rect x="320" y="352" width="110" height="240" rx="4" fill="none" stroke="#000000" stroke-opacity="0.27" stroke-width="3"/><rect x="310" y="72" width="3" height="536" fill="#ffffff" fill-opacity="0.13"/><rect x="458" y="70" width="134" height="540" rx="6" fill="url(#panel)"/><rect x="470" y="86" width="110" height="250" rx="4" fill="none" stroke="#000000" stroke-opacity="0.27" stroke-width="3"/><rect x="470" y="352" width="110" height="240" rx="4" fill="none" stroke="#000000" stroke-opacity="0.27" stroke-width="3"/><rect x="460" y="72" width="3" height="536" fill="#ffffff" fill-opacity="0.13"/><rect x="608" y="70" width="134" height="540" rx="6" fill="url(#panel)"/><rect x="620" y="86" width="110" height="250" rx="4" fill="none" stroke="#000000" stroke-opacity="0.27" stroke-width="3"/><rect x="620" y="352" width="110" height="240" rx="4" fill="none" stroke="#000000" stroke-opacity="0.27" stroke-width="3"/><rect x="610" y="72" width="3" height="536" fill="#ffffff" fill-opacity="0.13"/><rect x="758" y="70" width="134" height="540" rx="6" fill="url(#panel)"/><rect x="770" y="86" width="110" height="250" rx="4" fill="none" stroke="#000000" stroke-opacity="0.27" stroke-width="3"/><rect x="770" y="352" width="110" height="240" rx="4" fill="none" stroke="#000000" stroke-opacity="0.27" stroke-width="3"/><rect x="760" y="72" width="3" height="536" fill="#ffffff" fill-opacity="0.13"/><rect x="908" y="70" width="134" height="540" rx="6" fill="url(#panel)"/><rect x="920" y="86" width="110" height="250" rx="4" fill="none" stroke="#000000" stroke-opacity="0.27" stroke-width="3"/><rect x="920" y="352" width="110" height="240" rx="4" fill="none" stroke="#000000" stroke-opacity="0.27" stroke-width="3"/><rect x="910" y="72" width="3" height="536" fill="#ffffff" fill-opacity="0.13"/><rect x="1058" y="70" width="134" height="540" rx="6" fill="url(#panel)"/><rect x="1070" y="86" width="110" height="250" rx="4" fill="none" stroke="#000000" stroke-opacity="0.27" stroke-width="3"/><rect x="1070" y="352" width="110" height="240" rx="4" fill="none" stroke="#000000" stroke-opacity="0.27" stroke-width="3"/><rect x="1060" y="72" width="3" height="536" fill="#ffffff" fill-opacity="0.13"/><rect x="1208" y="70" width="134" height="540" rx="6" fill="url(#panel)"/><rect x="1220" y="86" width="110" height="250" rx="4" fill="none" stroke="#000000" stroke-opacity="0.27" stroke-width="3"/><rect x="1220" y="352" width="110" height="240" rx="4" fill="none" stroke="#000000" stroke-opacity="0.27" stroke-width="3"/><rect x="1210" y="72" width="3" height="536" fill="#ffffff" fill-opacity="0.13"/><rect x="1358" y="70" width="134" height="540" rx="6" fill="url(#panel)"/><rect x="1370" y="86" width="110" height="250" rx="4" fill="none" stroke="#000000" stroke-opacity="0.27" stroke-width="3"/><rect x="1370" y="352" width="110" height="240" rx="4" fill="none" stroke="#000000" stroke-opacity="0.27" stroke-width="3"/><rect x="1360" y="72" width="3" height="536" fill="#ffffff" fill-opacity="0.13"/><rect x="1508" y="70" width="134" height="540" rx="6" fill="url(#panel)"/><rect x="1520" y="86" width="110" height="250" rx="4" fill="none" stroke="#000000" stroke-opacity="0.27" stroke-width="3"/><rect x="1520" y="352" width="110" height="240" rx="4" fill="none" stroke="#000000" stroke-opacity="0.27" stroke-width="3"/><rect x="1510" y="72" width="3" height="536" fill="#ffffff" fill-opacity="0.13"/><rect x="1658" y="70" width="134" height="540" rx="6" fill="url(#panel)"/><rect x="1670" y="86" width="110" height="250" rx="4" fill="none" stroke="#000000" stroke-opacity="0.27" stroke-width="3"/><rect x="1670" y="352" width="110" height="240" rx="4" fill="none" stroke="#000000" stroke-opacity="0.27" stroke-width="3"/><rect x="1660" y="72" width="3" height="536" fill="#ffffff" fill-opacity="0.13"/><rect x="1808" y="70" width="134" height="540" rx="6" fill="url(#panel)"/><rect x="1820" y="86" width="110" height="250" rx="4" fill="none" stroke="#000000" stroke-opacity="0.27" stroke-width="3"/><rect x="1820" y="352" width="110" height="240" rx="4" fill="none" stroke="#000000" stroke-opacity="0.27" stroke-width="3"/><rect x="1810" y="72" width="3" height="536" fill="#ffffff" fill-opacity="0.13"/><rect x="0" y="40" width="1920" height="34" fill="url(#woodl)"/><rect x="0" y="600" width="1920" height="26" fill="url(#woodl)"/><path d="M60 440 L60 200 Q135 120 210 200 L210 440Z" fill="#cfe6ff" opacity=".85"/><path d="M60 440 L60 200 Q135 120 210 200 L210 440Z" fill="none" stroke="#2a1c12" stroke-width="10"/><line x1="135" y1="150" x2="135" y2="440" stroke="#2a1c12" stroke-width="6"/><line x1="60" y1="300" x2="210" y2="300" stroke="#2a1c12" stroke-width="6"/><path d="M1710 440 L1710 200 Q1785 120 1860 200 L1860 440Z" fill="#cfe6ff" opacity=".85"/><path d="M1710 440 L1710 200 Q1785 120 1860 200 L1860 440Z" fill="none" stroke="#2a1c12" stroke-width="10"/><line x1="1785" y1="150" x2="1785" y2="440" stroke="#2a1c12" stroke-width="6"/><line x1="1710" y1="300" x2="1860" y2="300" stroke="#2a1c12" stroke-width="6"/><polygon points="60,300 210,300 520,900 150,900" fill="url(#beam)"/><polygon points="1860,300 1710,300 1400,900 1770,900" fill="url(#beam)"/><g transform="translate(960 190)"><circle r="92" fill="url(#gold)"/><circle r="78" fill="#2a1c12"/><circle r="70" fill="none" stroke="url(#gold)" stroke-width="4"/>
<line x1="0" y1="-52" x2="0" y2="46" stroke="url(#gold)" stroke-width="7"/><line x1="-46" y1="-34" x2="46" y2="-34" stroke="url(#gold)" stroke-width="7"/>
<path d="M-46 -34 L-62 8 Q-46 24 -30 8Z M46 -34 L30 8 Q46 24 62 8Z" fill="url(#gold)"/><rect x="-26" y="44" width="52" height="8" rx="3" fill="url(#gold)"/></g>
<text x="960" y="330" font-family="Impact,Arial Black,sans-serif" font-size="46" fill="url(#gold)" text-anchor="middle" letter-spacing="14">KAMU BÍRÓSÁG</text><rect x="330" y="150" width="14" height="420" fill="#6b4a2a"/><path d="M344 160 H500 V280 H344Z" fill="#b3282d"/><rect x="1576" y="150" width="14" height="420" fill="#6b4a2a"/><path d="M1576 160 H1420 V280 H1576Z" fill="#2a4c9a"/><circle cx="337" cy="146" r="12" fill="url(#gold)"/><circle cx="1583" cy="146" r="12" fill="url(#gold)"/><rect y="610" width="1920" height="470" fill="url(#floor)"/><line x1="-1000" y1="610" x2="-4136.0" y2="1080" stroke="#000000" stroke-opacity="0.25" stroke-width="2"/><line x1="-900" y1="610" x2="-3876.0" y2="1080" stroke="#000000" stroke-opacity="0.25" stroke-width="2"/><line x1="-800" y1="610" x2="-3616.0" y2="1080" stroke="#000000" stroke-opacity="0.25" stroke-width="2"/><line x1="-700" y1="610" x2="-3356.0" y2="1080" stroke="#000000" stroke-opacity="0.25" stroke-width="2"/><line x1="-600" y1="610" x2="-3096.0" y2="1080" stroke="#000000" stroke-opacity="0.25" stroke-width="2"/><line x1="-500" y1="610" x2="-2836.0" y2="1080" stroke="#000000" stroke-opacity="0.25" stroke-width="2"/><line x1="-400" y1="610" x2="-2576.0" y2="1080" stroke="#000000" stroke-opacity="0.25" stroke-width="2"/><line x1="-300" y1="610" x2="-2316.0" y2="1080" stroke="#000000" stroke-opacity="0.25" stroke-width="2"/><line x1="-200" y1="610" x2="-2056.0" y2="1080" stroke="#000000" stroke-opacity="0.25" stroke-width="2"/><line x1="-100" y1="610" x2="-1796.0" y2="1080" stroke="#000000" stroke-opacity="0.25" stroke-width="2"/><line x1="0" y1="610" x2="-1536.0" y2="1080" stroke="#000000" stroke-opacity="0.25" stroke-width="2"/><line x1="100" y1="610" x2="-1276.0" y2="1080" stroke="#000000" stroke-opacity="0.25" stroke-width="2"/><line x1="200" y1="610" x2="-1016.0" y2="1080" stroke="#000000" stroke-opacity="0.25" stroke-width="2"/><line x1="300" y1="610" x2="-756.0" y2="1080" stroke="#000000" stroke-opacity="0.25" stroke-width="2"/><line x1="400" y1="610" x2="-496.0" y2="1080" stroke="#000000" stroke-opacity="0.25" stroke-width="2"/><line x1="500" y1="610" x2="-236.0" y2="1080" stroke="#000000" stroke-opacity="0.25" stroke-width="2"/><line x1="600" y1="610" x2="24.0" y2="1080" stroke="#000000" stroke-opacity="0.25" stroke-width="2"/><line x1="700" y1="610" x2="284.0" y2="1080" stroke="#000000" stroke-opacity="0.25" stroke-width="2"/><line x1="800" y1="610" x2="544.0" y2="1080" stroke="#000000" stroke-opacity="0.25" stroke-width="2"/><line x1="900" y1="610" x2="804.0" y2="1080" stroke="#000000" stroke-opacity="0.25" stroke-width="2"/><line x1="1000" y1="610" x2="1064.0" y2="1080" stroke="#000000" stroke-opacity="0.25" stroke-width="2"/><line x1="1100" y1="610" x2="1324.0" y2="1080" stroke="#000000" stroke-opacity="0.25" stroke-width="2"/><line x1="1200" y1="610" x2="1584.0" y2="1080" stroke="#000000" stroke-opacity="0.25" stroke-width="2"/><line x1="1300" y1="610" x2="1844.0" y2="1080" stroke="#000000" stroke-opacity="0.25" stroke-width="2"/><line x1="1400" y1="610" x2="2104.0" y2="1080" stroke="#000000" stroke-opacity="0.25" stroke-width="2"/><line x1="1500" y1="610" x2="2364.0" y2="1080" stroke="#000000" stroke-opacity="0.25" stroke-width="2"/><line x1="1600" y1="610" x2="2624.0" y2="1080" stroke="#000000" stroke-opacity="0.25" stroke-width="2"/><line x1="1700" y1="610" x2="2884.0" y2="1080" stroke="#000000" stroke-opacity="0.25" stroke-width="2"/><line x1="1800" y1="610" x2="3144.0" y2="1080" stroke="#000000" stroke-opacity="0.25" stroke-width="2"/><line x1="1900" y1="610" x2="3404.0" y2="1080" stroke="#000000" stroke-opacity="0.25" stroke-width="2"/><line x1="2000" y1="610" x2="3664.0" y2="1080" stroke="#000000" stroke-opacity="0.25" stroke-width="2"/><line x1="2100" y1="610" x2="3924.0" y2="1080" stroke="#000000" stroke-opacity="0.25" stroke-width="2"/><line x1="2200" y1="610" x2="4184.0" y2="1080" stroke="#000000" stroke-opacity="0.25" stroke-width="2"/><line x1="2300" y1="610" x2="4444.0" y2="1080" stroke="#000000" stroke-opacity="0.25" stroke-width="2"/><line x1="2400" y1="610" x2="4704.0" y2="1080" stroke="#000000" stroke-opacity="0.25" stroke-width="2"/><line x1="2500" y1="610" x2="4964.0" y2="1080" stroke="#000000" stroke-opacity="0.25" stroke-width="2"/><line x1="2600" y1="610" x2="5224.0" y2="1080" stroke="#000000" stroke-opacity="0.25" stroke-width="2"/><line x1="2700" y1="610" x2="5484.0" y2="1080" stroke="#000000" stroke-opacity="0.25" stroke-width="2"/><line x1="2800" y1="610" x2="5744.0" y2="1080" stroke="#000000" stroke-opacity="0.25" stroke-width="2"/><line x1="2900" y1="610" x2="6004.0" y2="1080" stroke="#000000" stroke-opacity="0.25" stroke-width="2"/><line x1="3000" y1="610" x2="6264.0" y2="1080" stroke="#000000" stroke-opacity="0.25" stroke-width="2"/><line x1="3100" y1="610" x2="6524.0" y2="1080" stroke="#000000" stroke-opacity="0.25" stroke-width="2"/><line x1="0" y1="640" x2="1920" y2="640" stroke="#000000" stroke-opacity="0.19" stroke-width="2"/><line x1="0" y1="680" x2="1920" y2="680" stroke="#000000" stroke-opacity="0.19" stroke-width="2"/><line x1="0" y1="730" x2="1920" y2="730" stroke="#000000" stroke-opacity="0.19" stroke-width="2"/><line x1="0" y1="790" x2="1920" y2="790" stroke="#000000" stroke-opacity="0.19" stroke-width="2"/><line x1="0" y1="860" x2="1920" y2="860" stroke="#000000" stroke-opacity="0.19" stroke-width="2"/><line x1="0" y1="950" x2="1920" y2="950" stroke="#000000" stroke-opacity="0.19" stroke-width="2"/><line x1="0" y1="1050" x2="1920" y2="1050" stroke="#000000" stroke-opacity="0.19" stroke-width="2"/><polygon points="800,610 1120,610 1500,1080 420,1080" fill="url(#carpet)" opacity=".9"/><polygon points="800,610 1120,610 1500,1080 420,1080" fill="none" stroke="url(#gold)" stroke-width="5" opacity=".6"/><rect x="520" y="420" width="880" height="230" rx="10" fill="url(#wood)"/>
<rect x="500" y="404" width="920" height="30" rx="8" fill="url(#woodl)"/>
<rect x="500" y="404" width="920" height="6" fill="#ffffff" fill-opacity="0.27"/><rect x="560" y="450" width="130" height="170" rx="6" fill="none" stroke="#000000" stroke-opacity="0.33" stroke-width="4"/><rect x="566" y="456" width="118" height="158" rx="4" fill="#000000" fill-opacity="0.07"/><rect x="720" y="450" width="130" height="170" rx="6" fill="none" stroke="#000000" stroke-opacity="0.33" stroke-width="4"/><rect x="726" y="456" width="118" height="158" rx="4" fill="#000000" fill-opacity="0.07"/><rect x="880" y="450" width="130" height="170" rx="6" fill="none" stroke="#000000" stroke-opacity="0.33" stroke-width="4"/><rect x="886" y="456" width="118" height="158" rx="4" fill="#000000" fill-opacity="0.07"/><rect x="1040" y="450" width="130" height="170" rx="6" fill="none" stroke="#000000" stroke-opacity="0.33" stroke-width="4"/><rect x="1046" y="456" width="118" height="158" rx="4" fill="#000000" fill-opacity="0.07"/><rect x="1200" y="450" width="130" height="170" rx="6" fill="none" stroke="#000000" stroke-opacity="0.33" stroke-width="4"/><rect x="1206" y="456" width="118" height="158" rx="4" fill="#000000" fill-opacity="0.07"/><rect x="1360" y="450" width="130" height="170" rx="6" fill="none" stroke="#000000" stroke-opacity="0.33" stroke-width="4"/><rect x="1366" y="456" width="118" height="158" rx="4" fill="#000000" fill-opacity="0.07"/><rect x="520" y="640" width="880" height="14" fill="#2a1c12"/><rect x="900" y="480" width="120" height="70" rx="8" fill="url(#gold)"/><text x="960" y="530" font-family="Impact,sans-serif" font-size="30" fill="#2a1c12" text-anchor="middle">BÍRÓ</text><rect x="1330" y="500" width="190" height="150" rx="8" fill="url(#wood)"/><rect x="1318" y="486" width="214" height="22" rx="6" fill="url(#woodl)"/><rect x="1346" y="530" width="158" height="96" rx="5" fill="none" stroke="#000000" stroke-opacity="0.33" stroke-width="4"/><rect x="1540" y="470" width="340" height="230" rx="10" fill="url(#wood)"/><rect x="1526" y="454" width="368" height="22" rx="6" fill="url(#woodl)"/><rect x="1560" y="500" width="54" height="170" rx="5" fill="none" stroke="#000000" stroke-opacity="0.33" stroke-width="4"/><rect x="1630" y="500" width="54" height="170" rx="5" fill="none" stroke="#000000" stroke-opacity="0.33" stroke-width="4"/><rect x="1700" y="500" width="54" height="170" rx="5" fill="none" stroke="#000000" stroke-opacity="0.33" stroke-width="4"/><rect x="1770" y="500" width="54" height="170" rx="5" fill="none" stroke="#000000" stroke-opacity="0.33" stroke-width="4"/><rect x="1540" y="700" width="340" height="12" fill="#2a1c12"/><rect x="120" y="640" width="360" height="130" rx="10" fill="url(#wood)"/><rect x="104" y="624" width="392" height="26" rx="6" fill="url(#woodl)"/><rect x="104" y="624" width="392" height="5" fill="#ffffff" fill-opacity="0.27"/><rect x="150" y="670" width="300" height="80" rx="6" fill="none" stroke="#000000" stroke-opacity="0.33" stroke-width="4"/><rect x="700" y="820" width="520" height="150" rx="10" fill="url(#wood)"/><rect x="684" y="802" width="552" height="28" rx="6" fill="url(#woodl)"/><rect x="684" y="802" width="552" height="5" fill="#ffffff" fill-opacity="0.27"/><rect x="730" y="846" width="120" height="100" rx="5" fill="none" stroke="#000000" stroke-opacity="0.33" stroke-width="4"/><rect x="880" y="846" width="120" height="100" rx="5" fill="none" stroke="#000000" stroke-opacity="0.33" stroke-width="4"/><rect x="1030" y="846" width="120" height="100" rx="5" fill="none" stroke="#000000" stroke-opacity="0.33" stroke-width="4"/><rect x="0" y="1010" width="1920" height="12" fill="url(#woodl)" opacity=".0"/><rect x="478" y="40" width="4" height="64" fill="#1a120c"/><ellipse cx="480" cy="116" rx="40" ry="22" fill="url(#gold)"/><circle cx="480" cy="130" r="260" fill="url(#lamp)" opacity=".55"/><ellipse cx="480" cy="132" rx="22" ry="8" fill="#fff4d0"/><rect x="958" y="40" width="4" height="64" fill="#1a120c"/><ellipse cx="960" cy="116" rx="40" ry="22" fill="url(#gold)"/><circle cx="960" cy="130" r="260" fill="url(#lamp)" opacity=".55"/><ellipse cx="960" cy="132" rx="22" ry="8" fill="#fff4d0"/><rect x="1438" y="40" width="4" height="64" fill="#1a120c"/><ellipse cx="1440" cy="116" rx="40" ry="22" fill="url(#gold)"/><circle cx="1440" cy="130" r="260" fill="url(#lamp)" opacity=".55"/><ellipse cx="1440" cy="132" rx="22" ry="8" fill="#fff4d0"/><rect width="1920" height="1080" fill="url(#vig)"/></svg>